HIERARCHY
ROOT Hips
{
	OFFSET -0.001795 -0.223333 0.028219
	CHANNELS 6 Xposition Yposition Zposition Zrotation Yrotation Xrotation
	JOINT LeftUpLeg
	{
		OFFSET 0.069520 -0.091406 -0.006815
		CHANNELS 3 Zrotation Yrotation Xrotation
		JOINT LeftLeg
		{
			OFFSET 0.034277 -0.375199 -0.004496
			CHANNELS 3 Zrotation Yrotation Xrotation
			JOINT LeftFoot
			{
				OFFSET -0.013596 -0.397961 -0.043693
				CHANNELS 3 Zrotation Yrotation Xrotation
				JOINT LeftToe
				{
					OFFSET 0.026358 -0.055791 0.119288
					CHANNELS 3 Zrotation Yrotation Xrotation
					End Site
					{
						OFFSET 0.000000 0.000000 0.000000
					}
				}
			}
		}
	}
	JOINT RightUpLeg
	{
		OFFSET -0.067670 -0.090522 -0.004320
		CHANNELS 3 Zrotation Yrotation Xrotation
		JOINT RightLeg
		{
			OFFSET -0.038290 -0.382569 -0.008850
			CHANNELS 3 Zrotation Yrotation Xrotation
			JOINT RightFoot
			{
				OFFSET 0.015774 -0.398415 -0.042312
				CHANNELS 3 Zrotation Yrotation Xrotation
				JOINT RightToe
				{
					OFFSET -0.025372 -0.048144 0.123348
					CHANNELS 3 Zrotation Yrotation Xrotation
					End Site
					{
						OFFSET 0.000000 0.000000 0.000000
					}
				}
			}
		}
	}
	JOINT Spine
	{
		OFFSET -0.002533 0.108963 -0.026696
		CHANNELS 3 Zrotation Yrotation Xrotation
		JOINT Spine1
		{
			OFFSET 0.005487 0.135180 0.001092
			CHANNELS 3 Zrotation Yrotation Xrotation
			JOINT Spine2
			{
				OFFSET 0.001457 0.052922 0.025425
				CHANNELS 3 Zrotation Yrotation Xrotation
				JOINT Neck
				{
					OFFSET -0.002778 0.213870 -0.042857
					CHANNELS 3 Zrotation Yrotation Xrotation
					JOINT Head
					{
						OFFSET 0.005152 0.064970 0.051349
						CHANNELS 3 Zrotation Yrotation Xrotation
						End Site
						{
							OFFSET 0.000000 0.000000 0.000000
						}
					}
				}
				JOINT LeftShoulder
				{
					OFFSET 0.078845 0.121749 -0.034090
					CHANNELS 3 Zrotation Yrotation Xrotation
					JOINT LeftArm
					{
						OFFSET 0.090977 0.030469 -0.008868
						CHANNELS 3 Zrotation Yrotation Xrotation
						JOINT LeftForeArm
						{
							OFFSET 0.259612 -0.012772 -0.027456
							CHANNELS 3 Zrotation Yrotation Xrotation
							JOINT LeftHand
							{
								OFFSET 0.249234 0.008986 -0.001171
								CHANNELS 3 Zrotation Yrotation Xrotation
								End Site
								{
									OFFSET 0.000000 0.000000 0.000000
								}
							}
						}
					}
				}
				JOINT RightShoulder
				{
					OFFSET -0.081759 0.118833 -0.038615
					CHANNELS 3 Zrotation Yrotation Xrotation
					JOINT RightArm
					{
						OFFSET -0.096012 0.032551 -0.009143
						CHANNELS 3 Zrotation Yrotation Xrotation
						JOINT RightForeArm
						{
							OFFSET -0.253742 -0.013329 -0.021401
							CHANNELS 3 Zrotation Yrotation Xrotation
							JOINT RightHand
							{
								OFFSET -0.255298 0.007772 -0.005559
								CHANNELS 3 Zrotation Yrotation Xrotation
								End Site
								{
									OFFSET 0.000000 0.000000 0.000000
								}
							}
						}
					}
				}
			}
		}
	}
}
MOTION
Frames: 9
Frame Time: 0.050000
0.000000 0.967839 0.000000 -1.517059 -7.613703 1.388259 4.355495 0.370618 5.806378 -1.132676 0.339980 -7.490442 1.636742 7.841276 19.166420 0.000000 0.000000 0.000000 -2.810579 -0.122102 3.604980 3.343696 -0.333502 -5.316614 5.915089 3.636505 14.858384 0.000000 0.000000 0.000000 6.347445 -0.612620 5.828755 -6.675033 2.102640 -22.705096 -1.714213 8.301471 26.176462 10.728032 -3.728901 -28.004854 0.000000 0.000000 0.000000 -30.476453 -10.482880 3.676390 -42.204152 -4.439045 -5.066995 -7.280864 -23.335201 2.422883 0.000000 0.000000 0.000000 38.600601 -2.469938 -3.219803 49.145984 3.096333 -6.214986 7.023840 26.007919 2.867771 0.000000 0.000000 0.000000
0.000338 0.967012 -0.000685 -1.505093 -7.928384 1.929380 4.805940 0.347919 5.769052 -1.748419 0.401454 -8.305791 1.173211 7.095145 19.068659 0.000000 0.000000 0.000000 -2.590610 -0.039967 2.202459 3.309596 -0.323936 -4.416037 5.341721 2.495041 14.877677 0.000000 0.000000 0.000000 6.500772 -0.539955 4.848600 -7.073000 2.238573 -21.235229 -1.840313 8.291536 24.447682 10.262965 -3.474222 -27.654808 0.000000 0.000000 0.000000 -29.797787 -10.248354 3.527561 -42.522384 -4.096971 -5.102477 -8.145848 -23.699236 2.637990 0.000000 0.000000 0.000000 37.227915 -3.268080 -3.910559 51.150789 1.519225 -6.795315 7.140376 27.550390 3.089874 0.000000 0.000000 0.000000
0.000691 0.966440 -0.001301 -0.973123 -7.413954 2.009825 4.702374 0.304662 5.161076 -2.289275 0.405145 -7.337582 0.486328 5.920607 17.929445 0.000000 0.000000 0.000000 -2.416661 -0.044162 2.059144 2.659053 -0.300058 -4.624872 4.147120 0.496244 14.630494 0.000000 0.000000 0.000000 6.385015 -0.472619 4.154627 -7.200750 2.247411 -22.471251 -1.496266 7.725505 26.015930 9.990569 -3.525302 -27.203373 0.000000 0.000000 0.000000 -29.484648 -10.408780 3.878922 -42.646277 -5.233012 -4.948538 -8.321678 -22.635988 2.568349 0.000000 0.000000 0.000000 36.444194 -2.330131 -3.149164 51.303827 1.982777 -6.757319 5.648263 25.403771 2.492056 0.000000 0.000000 0.000000
0.000962 0.966995 -0.001826 -0.937652 -8.125973 2.425110 4.535164 0.351803 5.656135 -2.360881 0.444547 -8.625965 0.803104 6.293961 18.001409 0.000000 0.000000 0.000000 -2.821588 0.023103 1.552662 3.388057 -0.326267 -5.008414 4.280803 0.222540 15.405575 0.000000 0.000000 0.000000 6.657559 -0.442624 3.662862 -7.282509 2.230512 -23.132612 -1.550557 8.819406 26.485218 10.537931 -3.729470 -27.364480 0.000000 0.000000 0.000000 -29.841378 -10.662495 3.823786 -42.380378 -4.754917 -5.028097 -8.712118 -22.823145 2.654852 0.000000 0.000000 0.000000 37.777218 -2.782855 -3.302999 50.258109 2.097753 -6.760668 5.437503 24.348773 2.356545 0.000000 0.000000 0.000000
0.001276 0.966801 -0.002432 -0.811084 -8.077443 2.346989 4.299520 0.376240 5.856696 -2.486839 0.452788 -8.715338 1.162635 6.723003 17.420411 0.000000 0.000000 0.000000 -2.926160 0.029826 1.539798 3.397754 -0.327648 -5.197191 4.159999 -0.201665 15.832349 0.000000 0.000000 0.000000 6.688916 -0.393632 3.163142 -7.043578 2.193095 -22.431978 -1.748438 8.932514 25.856555 10.116320 -3.547434 -26.661850 0.000000 0.000000 0.000000 -29.711477 -10.257228 3.436695 -42.630079 -4.796618 -4.955710 -9.079667 -22.528645 2.683796 0.000000 0.000000 0.000000 37.215794 -2.431674 -2.886236 50.569931 2.287234 -6.687255 5.145353 22.498324 2.082037 0.000000 0.000000 0.000000
0.001709 0.966880 -0.003249 -0.667754 -8.435057 2.491785 4.174552 0.404162 6.101523 -2.669431 0.484176 -9.515184 1.260121 6.908206 17.882777 0.000000 0.000000 0.000000 -3.096533 0.052163 1.418815 3.682721 -0.333793 -5.309706 3.804784 -0.723641 15.474282 0.000000 0.000000 0.000000 6.662330 -0.365876 2.865424 -7.105043 2.187679 -22.852773 -1.579600 9.372280 25.985329 10.291389 -3.560549 -27.014852 0.000000 0.000000 0.000000 -29.350988 -10.161193 3.310351 -42.976085 -4.953814 -4.936899 -9.368805 -21.345074 2.584403 0.000000 0.000000 0.000000 37.148404 -2.505560 -2.842863 50.299580 2.484339 -6.619763 4.961596 21.142000 1.899474 0.000000 0.000000 0.000000
0.002251 0.966559 -0.004259 -0.548585 -8.553936 2.576062 3.886070 0.410112 5.973177 -2.810859 0.493258 -9.564154 1.873747 7.772723 17.716469 0.000000 0.000000 0.000000 -2.990287 0.047294 1.416968 3.932279 -0.338847 -5.812255 2.836951 -2.514755 15.562684 0.000000 0.000000 0.000000 6.645925 -0.353201 2.728962 -7.164126 2.189894 -23.223974 -1.399425 9.560324 26.335416 10.402233 -3.618715 -27.049244 0.000000 0.000000 0.000000 -29.233212 -9.964781 3.169234 -43.548174 -4.920005 -5.036352 -8.984952 -20.387296 2.397711 0.000000 0.000000 0.000000 36.915076 -2.423724 -2.690502 50.553789 2.591854 -6.653372 4.331882 20.437227 1.727433 0.000000 0.000000 0.000000
0.003011 0.966496 -0.005346 -0.396103 -7.831491 2.721889 3.482143 0.380136 5.476201 -2.746531 0.481359 -9.508925 2.309521 8.537476 17.822081 0.000000 0.000000 0.000000 -2.440100 0.026878 1.161965 3.498543 -0.333932 -5.916612 1.320381 -5.105104 15.650706 0.000000 0.000000 0.000000 6.445548 -0.308945 2.289371 -7.102148 2.189014 -23.178603 -1.188509 9.291416 26.377764 10.428418 -3.719457 -26.413865 0.000000 0.000000 0.000000 -28.605863 -10.181894 3.243986 -44.718226 -5.015368 -5.118121 -8.513863 -18.695693 2.109287 0.000000 0.000000 0.000000 36.786000 -1.957818 -2.195631 50.520939 2.859931 -6.584719 3.792467 19.174803 1.515464 0.000000 0.000000 0.000000
0.004376 0.966865 -0.006330 -0.227382 -7.065326 2.961272 3.424645 0.318559 4.774346 -3.323213 0.492264 -9.127366 2.541384 8.966402 17.683897 0.000000 0.000000 0.000000 -2.015018 0.019262 0.897233 2.744919 -0.318656 -6.174414 0.424232 -6.702511 16.111799 0.000000 0.000000 0.000000 6.254060 -0.287396 2.052111 -7.106051 2.196870 -23.405786 -0.848885 9.223845 26.616312 10.795280 -3.883029 -26.415748 0.000000 0.000000 0.000000 -28.442447 -10.269938 3.135011 -44.986035 -4.916264 -5.152250 -8.747571 -17.427082 1.985768 0.000000 0.000000 0.000000 36.944157 -1.964058 -1.970797 49.863304 3.083471 -6.531650 4.230416 18.559997 1.522939 0.000000 0.000000 0.000000
